<?xml version="1.0" encoding="UTF-8"?>
<svg xmlns="http://www.w3.org/2000/svg" viewBox="0 0 1280 900" width="1280" height="900" font-family="Segoe UI, sans-serif">
  <defs>
    <symbol id="check" viewBox="0 0 12 12">
      <path d="M2 6 L5 9 L10 3" stroke="currentColor" stroke-width="2" fill="none" stroke-linecap="round" stroke-linejoin="round"/>
    </symbol>
    <clipPath id="bar-clip">
      <rect x="40" y="192" width="1100" height="48" rx="24"/>
    </clipPath>
  </defs>

  <rect width="1280" height="900" fill="#050505"/>

  <!-- =================== HEADER =================== -->
  <rect x="20" y="20" width="1240" height="120" rx="22" fill="#0F0F10" stroke="#232326" stroke-width="1"/>
  <circle cx="50" cy="50" r="9" fill="#FD0902"/>
  <circle cx="74" cy="50" r="9" fill="#FDD800"/>
  <circle cx="98" cy="50" r="9" fill="#63B02F"/>
  <circle cx="122" cy="50" r="9" fill="#1DB6FF"/>
  <circle cx="146" cy="50" r="9" fill="#FCBBEB"/>
  <text x="50" y="100" font-size="32" font-weight="700" fill="#F4F4F5">Rutherford Assistant</text>
  <text x="50" y="124" font-size="14" fill="#B3B3BC">Rutherford software</text>

  <rect x="880" y="34" width="360" height="92" rx="16" fill="#151517" stroke="#27272A" stroke-width="1"/>
  <circle cx="900" cy="56" r="5" fill="#63B02F"/>
  <text x="912" y="60" font-size="11" font-weight="700" fill="#71717A" letter-spacing="2">COMPUTER ONLINE</text>
  <text x="900" y="90" font-size="26" font-weight="700" fill="#F4F4F5">OPS-001</text>
  <text x="900" y="110" font-size="12" fill="#B3B3BC">28 Apr 2026 - 17:11:32</text>
  <text x="900" y="124" font-size="11" fill="#71717A">Last run: 2 days ago</text>

  <!-- =================== SEGMENTED PROGRESS BAR (centered text) =================== -->
  <rect x="20" y="158" width="1240" height="100" rx="22" fill="#FFFFFF" stroke="#E5E7EB" stroke-width="1"/>
  <text x="40" y="180" font-size="13" font-weight="700" fill="#71717A" letter-spacing="1">PREPARATION PROGRESS</text>

  <!-- Track -->
  <rect x="40" y="192" width="1100" height="48" rx="24" fill="#F4F4F5"/>

  <!-- Filled segments via clip -->
  <g clip-path="url(#bar-clip)">
    <rect x="40" y="192" width="550" height="48" fill="#63B02F"/>
    <rect x="590" y="192" width="550" height="48" fill="#1DB6FF"/>
  </g>

  <!-- White divider between segments -->
  <line x1="590" y1="192" x2="590" y2="240" stroke="#FFFFFF" stroke-width="3"/>

  <!-- Setup label centered horizontally AND vertically in green segment -->
  <use href="#check" x="282" y="201" width="16" height="16" color="#FFFFFF"/>
  <text x="306" y="215" font-size="15" font-weight="700" fill="#FFFFFF">Setup</text>
  <text x="315" y="231" font-size="10" fill="#FFFFFF" fill-opacity="0.9" text-anchor="middle">17:11 - 17:12</text>

  <!-- Network label centered horizontally AND vertically in blue segment -->
  <use href="#check" x="822" y="201" width="16" height="16" color="#FFFFFF"/>
  <text x="846" y="215" font-size="15" font-weight="700" fill="#FFFFFF">Network</text>
  <text x="865" y="231" font-size="10" fill="#FFFFFF" fill-opacity="0.9" text-anchor="middle">17:12 - 17:13</text>

  <!-- Right done pill -->
  <rect x="1160" y="192" width="100" height="48" rx="24" fill="#DCFCE7" stroke="#63B02F" stroke-width="2"/>
  <text x="1210" y="216" font-size="20" font-weight="700" fill="#166534" text-anchor="middle">100%</text>
  <text x="1210" y="232" font-size="10" font-weight="700" fill="#166534" text-anchor="middle" letter-spacing="1">DONE</text>

  <!-- =================== ACTIONS LEFT =================== -->
  <rect x="20" y="276" width="380" height="430" rx="22" fill="#FFFFFF" stroke="#E5E7EB" stroke-width="1"/>
  <text x="40" y="306" font-size="20" font-weight="700" fill="#111111">Actions</text>
  <text x="40" y="324" font-size="12" fill="#52525B">2 scripts discovered in assets</text>

  <rect x="40" y="344" width="340" height="74" rx="20" fill="#63B02F"/>
  <circle cx="76" cy="381" r="16" fill="#FFFFFF" fill-opacity="0.25"/>
  <text x="76" y="387" font-size="16" font-weight="700" fill="#FFFFFF" text-anchor="middle">1</text>
  <text x="104" y="376" font-size="17" font-weight="700" fill="#FFFFFF">Run Setup</text>
  <text x="104" y="396" font-size="11" fill="#FFFFFF" fill-opacity="0.9">Wallpaper - Lang - OneDrive</text>
  <rect x="328" y="364" width="40" height="40" rx="14" fill="#FFFFFF" fill-opacity="0.25"/>
  <use href="#check" x="334" y="370" width="28" height="28" color="#FFFFFF"/>

  <rect x="40" y="434" width="340" height="74" rx="20" fill="#1DB6FF"/>
  <circle cx="76" cy="471" r="16" fill="#FFFFFF" fill-opacity="0.25"/>
  <text x="76" y="477" font-size="16" font-weight="700" fill="#FFFFFF" text-anchor="middle">2</text>
  <text x="104" y="466" font-size="17" font-weight="700" fill="#FFFFFF">Run Network</text>
  <text x="104" y="486" font-size="11" fill="#FFFFFF" fill-opacity="0.9">Adapters - IPs - DHCP</text>
  <rect x="328" y="454" width="40" height="40" rx="14" fill="#FFFFFF" fill-opacity="0.25"/>
  <use href="#check" x="334" y="460" width="28" height="28" color="#FFFFFF"/>

  <rect x="40" y="540" width="340" height="44" rx="14" fill="#FFFFFF" stroke="#E5E7EB" stroke-width="1"/>
  <text x="210" y="567" font-size="14" font-weight="700" fill="#111111" text-anchor="middle">Open last report</text>

  <rect x="40" y="600" width="340" height="44" rx="14" fill="#FFFFFF" stroke="#E5E7EB" stroke-width="1"/>
  <text x="210" y="627" font-size="14" font-weight="700" fill="#111111" text-anchor="middle">Refresh all status</text>

  <!-- =================== STATUS DASHBOARD RIGHT =================== -->
  <rect x="418" y="276" width="842" height="430" rx="22" fill="#FFFFFF" stroke="#E5E7EB" stroke-width="1"/>
  <text x="438" y="306" font-size="20" font-weight="700" fill="#111111">Live status</text>

  <!-- 14/14 OK pill on same line as Live status title -->
  <rect x="1100" y="284" width="140" height="32" rx="16" fill="#DCFCE7" stroke="#63B02F" stroke-width="2"/>
  <text x="1170" y="306" font-size="14" font-weight="700" fill="#166534" text-anchor="middle">14 / 14 OK</text>

  <!-- Network section -->
  <rect x="438" y="332" width="802" height="28" rx="8" fill="#E6F4FF"/>
  <rect x="438" y="332" width="6" height="28" fill="#1DB6FF"/>
  <text x="456" y="350" font-size="13" font-weight="700" fill="#0C447C" letter-spacing="1">NETWORK CARDS</text>
  <text x="1232" y="350" font-size="12" font-weight="700" fill="#0C447C" text-anchor="end">3 / 3</text>

  <rect x="438" y="368" width="802" height="38" rx="10" fill="#FAFAFA"/>
  <circle cx="456" cy="387" r="6" fill="#63B02F"/>
  <text x="476" y="392" font-size="14" font-weight="700" fill="#111111">IntelliTrax</text>
  <text x="700" y="392" font-size="13" fill="#52525B">172.16.1.15</text>
  <rect x="1180" y="377" width="48" height="22" rx="8" fill="#DCFCE7"/>
  <text x="1204" y="392" font-size="12" font-weight="700" fill="#166534" text-anchor="middle">OK</text>

  <rect x="438" y="412" width="802" height="38" rx="10" fill="#FAFAFA"/>
  <circle cx="456" cy="431" r="6" fill="#63B02F"/>
  <text x="476" y="436" font-size="14" font-weight="700" fill="#111111">Network</text>
  <text x="700" y="436" font-size="13" fill="#52525B">DHCP</text>
  <rect x="1180" y="421" width="48" height="22" rx="8" fill="#DCFCE7"/>
  <text x="1204" y="436" font-size="12" font-weight="700" fill="#166534" text-anchor="middle">OK</text>

  <rect x="438" y="456" width="802" height="38" rx="10" fill="#FAFAFA"/>
  <circle cx="456" cy="475" r="6" fill="#63B02F"/>
  <text x="476" y="480" font-size="14" font-weight="700" fill="#111111">PUPI</text>
  <text x="700" y="480" font-size="13" fill="#52525B">10.10.6.15</text>
  <rect x="1180" y="465" width="48" height="22" rx="8" fill="#DCFCE7"/>
  <text x="1204" y="480" font-size="12" font-weight="700" fill="#166534" text-anchor="middle">OK</text>

  <!-- Audit section -->
  <rect x="438" y="510" width="802" height="28" rx="8" fill="#EAF6E0"/>
  <rect x="438" y="510" width="6" height="28" fill="#63B02F"/>
  <text x="456" y="528" font-size="13" font-weight="700" fill="#1F4D11" letter-spacing="1">SETUP AUDIT</text>
  <text x="1232" y="528" font-size="12" font-weight="700" fill="#1F4D11" text-anchor="end">11 / 11</text>

  <g font-size="13" font-weight="700">
    <rect x="438" y="546" width="262" height="32" rx="10" fill="#DCFCE7"/>
    <text x="454" y="567" fill="#166534">Wallpaper</text>
    <use href="#check" x="676" y="556" width="14" height="14" color="#166534"/>

    <rect x="710" y="546" width="262" height="32" rx="10" fill="#DCFCE7"/>
    <text x="726" y="567" fill="#166534">OneDrive</text>
    <use href="#check" x="948" y="556" width="14" height="14" color="#166534"/>

    <rect x="978" y="546" width="262" height="32" rx="10" fill="#DCFCE7"/>
    <text x="994" y="567" fill="#166534">Widget</text>
    <use href="#check" x="1216" y="556" width="14" height="14" color="#166534"/>

    <rect x="438" y="586" width="262" height="32" rx="10" fill="#DCFCE7"/>
    <text x="454" y="607" fill="#166534">Language</text>
    <use href="#check" x="676" y="596" width="14" height="14" color="#166534"/>

    <rect x="710" y="586" width="262" height="32" rx="10" fill="#DCFCE7"/>
    <text x="726" y="607" fill="#166534">Start menu</text>
    <use href="#check" x="948" y="596" width="14" height="14" color="#166534"/>

    <rect x="978" y="586" width="262" height="32" rx="10" fill="#DCFCE7"/>
    <text x="994" y="607" fill="#166534">OPS folder</text>
    <use href="#check" x="1216" y="596" width="14" height="14" color="#166534"/>

    <rect x="438" y="626" width="262" height="32" rx="10" fill="#DCFCE7"/>
    <text x="454" y="647" fill="#166534">Standby</text>
    <use href="#check" x="676" y="636" width="14" height="14" color="#166534"/>

    <rect x="710" y="626" width="262" height="32" rx="10" fill="#DCFCE7"/>
    <text x="726" y="647" fill="#166534">Consumer</text>
    <use href="#check" x="948" y="636" width="14" height="14" color="#166534"/>

    <rect x="978" y="626" width="262" height="32" rx="10" fill="#DCFCE7"/>
    <text x="994" y="647" fill="#166534">Touch kbd</text>
    <use href="#check" x="1216" y="636" width="14" height="14" color="#166534"/>

    <rect x="438" y="666" width="262" height="32" rx="10" fill="#DCFCE7"/>
    <text x="454" y="687" fill="#166534">Appx clean</text>
    <use href="#check" x="676" y="676" width="14" height="14" color="#166534"/>

    <rect x="710" y="666" width="262" height="32" rx="10" fill="#DCFCE7"/>
    <text x="726" y="687" fill="#166534">Startup</text>
    <use href="#check" x="948" y="676" width="14" height="14" color="#166534"/>
  </g>

  <!-- =================== LIVE LOGS =================== -->
  <rect x="20" y="722" width="1240" height="158" rx="22" fill="#0B0B0C" stroke="#232326" stroke-width="1"/>
  <circle cx="40" cy="746" r="6" fill="#FD0902"/>
  <circle cx="40" cy="746" r="3" fill="#FFFFFF"/>
  <text x="58" y="750" font-size="14" font-weight="700" fill="#F4F4F5">LIVE LOGS</text>
  <text x="1240" y="750" font-size="12" fill="#71717A" text-anchor="end">last 7 lines</text>

  <g font-family="Consolas, monospace" font-size="13">
    <text x="40" y="776" fill="#71717A">[2026-04-28 17:11:17]</text>
    <text x="220" y="776" fill="#E4E4E7">Launcher ready. Tasks: 2. Audit checks: 11.</text>
    <text x="40" y="794" fill="#71717A">[2026-04-28 17:11:32]</text>
    <text x="220" y="794" fill="#E4E4E7">Click received: 'setup'</text>
    <text x="40" y="812" fill="#71717A">[2026-04-28 17:11:32]</text>
    <text x="220" y="812" fill="#E4E4E7">Starting task: Run Setup</text>
    <text x="40" y="830" fill="#71717A">[2026-04-28 17:12:01]</text>
    <text x="220" y="830" fill="#BBF7D0">Wallpaper copied to ProgramData</text>
    <text x="40" y="848" fill="#71717A">[2026-04-28 17:12:14]</text>
    <text x="220" y="848" fill="#BBF7D0">OneDrive removal complete.</text>
    <text x="40" y="866" fill="#71717A">[2026-04-28 17:12:38]</text>
    <text x="220" y="866" fill="#BBF7D0">Setup done!</text>
  </g>
</svg>
